<svg width="24" height="24" viewBox="0 0 24 24" xmlns="http://www.w3.org/2000/svg">
    <path d="M4 6.5C4 6.224 4.224 6 4.5 6H19.5C19.776 6 20 6.224 20 6.5C20 6.776 19.776 7 19.5 7H4.5C4.224 7 4 6.776 4 6.5Z"
          fill="#000"/>
    <path d="M4 17.5C4 17.224 4.224 17 4.5 17H19.5C19.776 17 20 17.224 20 17.5C20 17.776 19.776 18 19.5 18H4.5C4.224 18 4 17.776 4 17.5Z"
          fill="#000"/>
    <path d="M7 11C7 9.895 7.895 9 9 9H15C16.105 9 17 9.895 17 11V13C17 14.105 16.105 15 15 15H9C7.895 15 7 14.105 7 13V11Z"
          fill="#000"/>
</svg>
