<svg width="24" height="24" viewBox="0 0 24 24" xmlns="http://www.w3.org/2000/svg">
    <path d="M6 4.5C6 4.224 6.224 4 6.5 4C6.776 4 7 4.224 7 4.5V19.5C7 19.776 6.776 20 6.5 20C6.224 20 6 19.776 6 19.5V4.5Z"
          fill="#000"/>
    <path d="M17 4.5C17 4.224 17.224 4 17.5 4C17.776 4 18 4.224 18 4.5V19.5C18 19.776 17.776 20 17.5 20C17.224 20 17 19.776 17 19.5V4.5Z"
          fill="#000"/>
    <path d="M9 9C9 7.895 9.895 7 11 7H13C14.105 7 15 7.895 15 9V15C15 16.105 14.105 17 13 17H11C9.895 17 9 16.105 9 15V9Z"
          fill="#000"/>
</svg>
